<svg width="25" height="25" viewBox="0 0 25 25" fill="none" xmlns="http://www.w3.org/2000/svg">
<path d="M25 12.5766C25 5.62969 19.4031 -0.0015564 12.5 -0.0015564C5.59376 6.10354e-06 -0.00311279 5.62969 -0.00311279 12.5781C-0.00311279 18.8547 4.56876 24.0578 10.5438 25.0016V16.2125H7.37189V12.5781H10.5469V9.80469C10.5469 6.65313 12.4141 4.91251 15.2688 4.91251C16.6375 4.91251 18.0672 5.15782 18.0672 5.15782V8.25157H16.4906C14.9391 8.25157 14.4547 9.22188 14.4547 10.2172V12.5766H17.9203L17.3672 16.2109H14.4531V25C20.4281 24.0563 25 18.8531 25 12.5766Z" fill="#CF5C36"/>
</svg>
