<svg width="25" height="25" viewBox="0 0 25 25" fill="none" xmlns="http://www.w3.org/2000/svg">
<path d="M12.5 0C5.7182 0 0.219299 5.548 0.219299 12.3904C0.219299 19.2327 5.7182 24.7807 12.5 24.7807C19.2818 24.7807 24.7807 19.2327 24.7807 12.3904C24.7807 5.548 19.2818 0 12.5 0ZM18.4019 9.33978C18.4101 9.46977 18.4101 9.60529 18.4101 9.73804C18.4101 13.7981 15.3454 18.4749 9.74507 18.4749C8.01809 18.4749 6.41722 17.9688 5.06853 17.0976C5.31524 17.1252 5.55099 17.1363 5.80318 17.1363C7.22862 17.1363 8.53893 16.6495 9.58333 15.8254C8.24562 15.7977 7.12171 14.9127 6.73794 13.6958C7.20669 13.7649 7.62884 13.7649 8.11129 13.6404C7.4225 13.4993 6.80339 13.1218 6.35915 12.5723C5.91491 12.0227 5.67294 11.335 5.67434 10.6258V10.5871C6.0773 10.8167 6.55154 10.9577 7.0477 10.9771C6.6306 10.6966 6.28854 10.3167 6.05184 9.87088C5.81514 9.4251 5.69113 8.92728 5.69079 8.42157C5.69079 7.84907 5.83882 7.32635 6.10472 6.87277C6.86925 7.82234 7.82328 8.59896 8.90478 9.15217C9.98629 9.70538 11.1711 10.0228 12.3821 10.0838C11.9518 7.99565 13.4978 6.3058 15.3564 6.3058C16.2336 6.3058 17.023 6.67641 17.5795 7.2738C18.2675 7.14381 18.9254 6.88384 19.5121 6.53536C19.2845 7.24614 18.8076 7.8463 18.1743 8.2252C18.7884 8.15882 19.3805 7.98735 19.9287 7.74674C19.5148 8.36072 18.9967 8.90557 18.4019 9.33978Z" fill="#CF5C36"/>
</svg>
