<svg width="20" height="20" viewBox="0 0 20 20" fill="none" xmlns="http://www.w3.org/2000/svg">
<g clip-path="url(#clip0_1_21)">
<path d="M10 0C4.47755 0 0 4.47755 0 10C0 15.5224 4.47755 20 10 20C15.5224 20 20 15.5224 20 10C20 4.47755 15.5224 0 10 0ZM15.2816 14.5918L14.4816 15.3918C14.3388 15.5347 13.9204 15.6245 13.9061 15.6245C11.3735 15.6469 8.93469 14.651 7.14286 12.8592C5.34694 11.0612 4.34898 8.61429 4.37755 6.07143C4.37755 6.06939 4.46939 5.66327 4.61224 5.52245L5.41225 4.72245C5.70612 4.42857 6.26735 4.29592 6.66327 4.42653L6.83265 4.48367C7.22653 4.61633 7.63878 5.05102 7.74694 5.45102L8.14898 6.92857C8.25714 7.33061 8.1102 7.90204 7.81837 8.19388L7.28367 8.72857C7.80816 10.6714 9.33265 12.1959 11.2776 12.7224L11.8122 12.1878C12.1061 11.8939 12.6776 11.7469 13.0776 11.8551L14.5551 12.2592C14.9551 12.3694 15.3898 12.7796 15.5224 13.1714L15.5796 13.3429C15.7061 13.7367 15.5735 14.3 15.2816 14.5918Z" fill="#CF5C36"/>
</g>
<defs>
<clipPath id="clip0_1_21">
<rect width="20" height="20" fill="white"/>
</clipPath>
</defs>
</svg>
